# xmcd
#
# Track frame offsets:
#       150
#       8912
#       26909
#       41615
#       50604
#       67275
#       76476
#       87034
#       96019
#       108458
#       121629
#       134163
#       145697
#       159103
#       172303
#
# Disc length: 2527 seconds
#
# Revision: 1
# Processed by: cddbd v1.5.2PL0 Copyright (c) Steve Scherf et al.
# Submitted via: FreeDbEdit v0.1
#
DISCID=cc09dd0f
DTITLE=Dick van Altena - Lonely Hours
DYEAR=2002
DGENRE=Country
TTITLE0=The Nickel Song
TTITLE1=Lonely Hours
TTITLE2=Lieve An
TTITLE3=Lonely, Heartbroken and Blue
TTITLE4=Halfway to Heaven
TTITLE5=Freek Is Al Groot
TTITLE6=Walk a Mile in My Shoes
TTITLE7=I Won't Be Your Clown No More
TTITLE8=True
TTITLE9=Think of Me
TTITLE10=Dom - Diedelie - Dom
TTITLE11=What My Love Can Do
TTITLE12=To Love
TTITLE13=Als De Sneeuw Gesmolten Is
TTITLE14=Ain't It a Beautiful World
EXTD=
EXTT0=
EXTT1=
EXTT2=
EXTT3=
EXTT4=
EXTT5=
EXTT6=
EXTT7=
EXTT8=
EXTT9=
EXTT10=
EXTT11=
EXTT12=
EXTT13=
EXTT14=
PLAYORDER=
